<svg width="41" height="40" viewBox="0 0 41 40" fill="none" xmlns="http://www.w3.org/2000/svg">
<path d="M18.8909 20.8054C19.2364 21.2677 19.6772 21.6503 20.1835 21.9272C20.6897 22.204 21.2494 22.3686 21.8248 22.4099C22.4002 22.4511 22.9777 22.368 23.5181 22.1662C24.0586 21.9644 24.5493 21.6486 24.9572 21.2402L27.3708 18.8242C28.1035 18.0647 28.509 17.0476 28.4998 15.9918C28.4907 14.936 28.0676 13.926 27.3218 13.1794C26.5759 12.4328 25.567 12.0093 24.5122 12.0002C23.4575 11.991 22.4414 12.3969 21.6827 13.1304L20.2989 14.5075M22.1091 19.1946C21.7636 18.7323 21.3228 18.3497 20.8165 18.0728C20.3103 17.796 19.7506 17.6314 19.1752 17.5901C18.5998 17.5489 18.0223 17.632 17.4819 17.8338C16.9414 18.0356 16.4507 18.3514 16.0428 18.7598L13.6292 21.1758C12.8965 21.9353 12.491 22.9524 12.5002 24.0082C12.5093 25.064 12.9324 26.074 13.6782 26.8206C14.4241 27.5672 15.433 27.9907 16.4877 27.9998C17.5425 28.009 18.5586 27.6031 19.3173 26.8696L20.6931 25.4925" stroke="#B8364A" stroke-width="2" stroke-linecap="round" stroke-linejoin="round"/>
</svg>
