<svg width="140" height="53" viewBox="0 0 140 53" fill="none" xmlns="http://www.w3.org/2000/svg">
<path fill-rule="evenodd" clip-rule="evenodd" d="M5.07912 32.1534L6.5303 26.3979H13.1467C14.5241 26.3979 15.551 26.7546 16.2397 27.4679C16.9284 28.1812 17.162 29.1527 16.953 30.3825C16.7377 31.6185 16.1597 32.5962 15.2066 33.3156C14.2597 34.0412 13.0975 34.3978 11.7201 34.3978C9.1375 34.3978 7.59409 33.2972 7.09601 31.0896L5.07912 32.1473V32.1534ZM19.4864 34.5331L15.0099 52.0026H0L4.32893 35.1235C4.84546 35.8921 5.49111 36.5316 6.27819 37.0358C7.68017 37.9397 9.34657 38.3886 11.2958 38.3886C13.7124 38.3886 15.8338 37.7245 17.6478 36.3963C18.3734 35.8675 18.9883 35.2464 19.4925 34.5331H19.4864ZM22.7515 32.1534L24.2027 26.3979H30.8191C32.1965 26.3979 33.2234 26.7546 33.9121 27.4679C34.6008 28.1812 34.8344 29.1527 34.6254 30.3825C34.4102 31.6185 33.8321 32.5962 32.879 33.3156C31.9321 34.0412 30.7699 34.3978 29.3925 34.3978C26.8099 34.3978 25.2665 33.2972 24.7684 31.0896L22.7515 32.1473V32.1534ZM37.1588 34.5331L34.8098 43.8489H19.8L22.0013 35.1235C22.5179 35.8921 23.1635 36.5316 23.9506 37.0358C25.3526 37.9397 27.019 38.3886 28.9682 38.3886C31.3848 38.3886 33.5062 37.7245 35.3202 36.3963C36.0458 35.8675 36.6545 35.2464 37.1649 34.5331H37.1588ZM45.9581 0L38.7944 28.0643C38.6161 26.7607 38.075 25.6354 37.1711 24.6946C35.7137 23.1758 33.8936 22.4195 31.7107 22.4195H28.6854L30.0751 16.8669H40.0734L40.7129 13.0237H27.5785L30.9544 0H45.9642H45.9581ZM26.2442 7.77242L21.122 28.0643C20.9437 26.7607 20.4026 25.6354 19.4987 24.6946C18.0413 23.1758 16.2212 22.4195 14.0383 22.4195H11.013L12.4027 16.8669H22.401L23.0405 13.0237H9.90614L11.2405 7.77242H26.2503H26.2442Z" fill="#B8364A"/>
<path d="M54.4069 26.2935L51.3323 38.4379H49.34L51.9288 28.1997H46.9849L44.3962 38.4379H42.3977L45.4723 26.2935H54.4069Z" fill="#B8364A"/>
<path d="M57.4075 34.1151H61.2568L60.7157 28.6301L57.4014 34.1151H57.4075ZM61.675 38.4379L61.4413 35.9905H56.2699L54.8003 38.4379H52.6297L60.107 26.2935H62.499L63.821 38.4379H61.6688H61.675Z" fill="#B8364A"/>
<path d="M71.1323 32.3995C71.7226 32.3995 72.2576 32.2027 72.7433 31.803C73.223 31.4033 73.5427 30.8991 73.7026 30.2842C73.8563 29.6693 73.7948 29.1651 73.512 28.7654C73.2291 28.3657 72.7987 28.1689 72.2084 28.1689H69.7241L68.6542 32.3995H71.1384H71.1323ZM72.6757 26.2935C73.8194 26.2935 74.6803 26.6747 75.2583 27.4372C75.8363 28.1997 75.9777 29.1466 75.6949 30.2842C75.412 31.4033 74.7848 32.3503 73.8256 33.1189C72.8602 33.8876 71.8087 34.2749 70.665 34.2749H68.1807L67.1292 38.4379H65.137L68.2053 26.2935H72.6818H72.6757Z" fill="#B8364A"/>
<path d="M77.7918 34.1151H81.6411L81.0999 28.6301L77.7856 34.1151H77.7918ZM82.0592 38.4379L81.8255 35.9905H76.6542L75.1846 38.4379H73.0139L80.4912 26.2935H82.8832L84.1991 38.4379H82.0469H82.0592Z" fill="#B8364A"/>
<path d="M84.611 38.4379L85.0783 36.5993C85.8162 36.7038 86.4311 36.5194 86.9292 36.0459C87.4273 35.5724 87.8454 34.6623 88.1836 33.3218L89.9607 26.2935H98.0959L95.0275 38.4379H93.0352L95.624 28.1997H91.4795L90.1944 33.2849C89.9238 34.3487 89.5856 35.2465 89.1736 35.9721C88.7616 36.7038 88.3066 37.2449 87.7962 37.6139C87.2858 37.9767 86.7755 38.2226 86.2651 38.3456C85.7547 38.4686 85.2075 38.4993 84.6171 38.444" fill="#B8364A"/>
<path d="M96.4664 38.4379L96.9337 36.5993C97.6716 36.7038 98.2865 36.5194 98.7846 36.0459C99.2827 35.5724 99.7008 34.6623 100.039 33.3218L101.816 26.2935H109.951L106.883 38.4379H104.891L107.479 28.1997H103.335L102.05 33.2849C101.779 34.3487 101.441 35.2465 101.029 35.9721C100.617 36.7038 100.162 37.2449 99.6516 37.6139C99.1412 37.9767 98.6309 38.2226 98.1205 38.3456C97.6101 38.4686 97.0629 38.4993 96.4725 38.444" fill="#B8364A"/>
<path d="M111.784 36.5316H117.158L116.678 38.4379H109.306L112.374 26.2935H119.661L119.181 28.1997H113.887L113.087 31.3603H117.945L117.472 33.248H112.608L111.784 36.5316Z" fill="#B8364A"/>
<path d="M117.508 38.4379L117.976 36.5993C118.714 36.7038 119.329 36.5194 119.827 36.0459C120.325 35.5724 120.743 34.6623 121.081 33.3218L122.858 26.2935H130.993L127.925 38.4379H125.933L128.521 28.1997H124.377L123.092 33.2849C122.821 34.3487 122.483 35.2465 122.071 35.9721C121.659 36.7038 121.204 37.2449 120.694 37.6139C120.183 37.9767 119.673 38.2226 119.163 38.3456C118.652 38.4686 118.105 38.4993 117.515 38.444" fill="#B8364A"/>
<path d="M135.298 36.5624C135.888 36.5624 136.423 36.3656 136.909 35.9659C137.388 35.5662 137.708 35.062 137.868 34.4471C138.022 33.8322 137.96 33.328 137.677 32.9283C137.395 32.5286 136.964 32.3318 136.374 32.3318H133.896L132.826 36.5624H135.304H135.298ZM136.841 30.4564C137.985 30.4564 138.846 30.8438 139.424 31.6124C139.996 32.381 140.143 33.328 139.86 34.4471C139.571 35.5785 138.95 36.5317 137.985 37.2941C137.026 38.0566 135.968 38.4379 134.824 38.4379H130.348L133.416 26.2935H135.408L134.357 30.4564H136.835H136.841Z" fill="#B8364A"/>
</svg>
