<?xml version="1.0" encoding="UTF-8" standalone="no"?>
<!-- Created with Inkscape (http://www.inkscape.org/) -->

<svg
   version="1.1"
   id="svg2"
   width="291.46933"
   height="205.87868"
   viewBox="0 0 291.46933 205.87868"
   sodipodi:docname="55 параллель (2).ai"
   xmlns:inkscape="http://www.inkscape.org/namespaces/inkscape"
   xmlns:sodipodi="http://sodipodi.sourceforge.net/DTD/sodipodi-0.dtd"
   xmlns="http://www.w3.org/2000/svg"
   xmlns:svg="http://www.w3.org/2000/svg">
  <defs
     id="defs6">
    <clipPath
       clipPathUnits="userSpaceOnUse"
       id="clipPath16">
      <path
         d="M 0,154.409 H 218.602 V 0 H 0 Z"
         id="path14" />
    </clipPath>
  </defs>
  <sodipodi:namedview
     id="namedview4"
     pagecolor="#ffffff"
     bordercolor="#000000"
     borderopacity="0.25"
     inkscape:showpageshadow="2"
     inkscape:pageopacity="0.0"
     inkscape:pagecheckerboard="0"
     inkscape:deskcolor="#d1d1d1" />
  <g
     id="g8"
     inkscape:groupmode="layer"
     inkscape:label="55 параллель (2)"
     transform="matrix(1.3333333,0,0,-1.3333333,0,205.87867)">
    <g
       id="g10">
      <g
         id="g12"
         clip-path="url(#clipPath16)">
        <g
           id="g18"
           transform="translate(50.1762,119.8277)">
          <path
             d="m 0,0 -10.05,-39.758 c -0.281,2.03 -1.124,3.777 -2.531,5.241 -0.908,0.945 -1.906,1.701 -2.994,2.268 -0.744,3.207 -1.208,6.521 -1.369,9.915 h 8.877 l 0.997,5.981 h -9.84 c 0.336,5.727 1.54,11.221 3.482,16.353 z m -18.168,-31.294 c -0.92,0.214 -1.891,0.321 -2.913,0.321 h -4.707 l 2.16,8.639 h 4.351 c 0.14,-3.054 0.514,-6.047 1.109,-8.96 m -1.076,14.941 h -8.269 L -23.362,0 h 7.45 c -1.86,-5.151 -3.01,-10.642 -3.332,-16.353 M 33.562,23.36 32.728,20.094 C 23.958,18.824 16.105,14.722 10.127,8.744 8.096,6.714 6.282,4.467 4.722,2.041 L 10.2,23.36 Z M 32.102,17.635 28.466,3.387 C 25.569,2.12 22.957,0.323 20.753,-1.881 16.937,-5.697 14.342,-10.733 13.604,-16.353 H 0.834 c 0.791,9.13 4.823,17.333 10.94,23.451 5.411,5.411 12.454,9.19 20.328,10.537 M 27.711,0.428 19.41,-32.109 c -1.875,2.875 -3.119,6.199 -3.537,9.775 h 3.569 l 0.997,5.981 h -4.482 c 0.722,4.976 3.051,9.432 6.443,12.825 1.563,1.562 3.351,2.899 5.311,3.956 m -9.055,-35.49 -1.198,-4.696 c -0.28,2.03 -1.123,3.777 -2.53,5.241 -2.27,2.363 -5.104,3.544 -8.5,3.544 H 2.411 c -0.131,0.42 -0.256,0.843 -0.373,1.27 l 1.843,7.369 h 9.648 c 0.504,-4.766 2.339,-9.136 5.127,-12.728 m -4.232,-16.734 -3.979,-15.79 c -4.093,2.404 -7.851,5.317 -11.186,8.651 -1.528,1.529 -2.967,3.146 -4.31,4.843 2.053,-1.164 4.458,-1.745 7.215,-1.745 3.765,0 7.06,1.033 9.885,3.101 0.611,0.447 1.173,0.937 1.685,1.47 0.228,-0.18 0.458,-0.356 0.69,-0.53 M 9.852,-69.935 9.345,-71.948 h -23.363 l 4.9,19.439 c 1.998,-2.892 4.252,-5.595 6.73,-8.072 3.633,-3.634 7.748,-6.786 12.24,-9.354 m -17.362,23.806 2.258,8.954 H 2.37 c 1.772,-3.651 4.079,-6.992 6.821,-9.923 -0.281,-0.304 -0.593,-0.587 -0.936,-0.849 -1.476,-1.125 -3.286,-1.688 -5.427,-1.688 -4.024,0 -6.423,1.717 -7.199,5.15 z m 12.49,8.954 h 0.064 c 2.14,0 3.747,-0.554 4.817,-1.661 1.071,-1.108 1.44,-2.622 1.108,-4.542 -0.104,-0.602 -0.265,-1.165 -0.482,-1.689 -2.153,2.375 -4.008,5.026 -5.507,7.892 m -17.57,-12.659 -11.625,-45.472 h -23.362 l 11.393,44.55 c 0.802,-1.2 1.813,-2.192 3.031,-2.977 2.178,-1.403 4.781,-2.104 7.808,-2.104 3.766,0 7.061,1.033 9.885,3.101 1.125,0.823 2.082,1.791 2.87,2.902 m -22.428,3.705 2.257,8.954 h 10.296 c 2.141,0 3.747,-0.554 4.818,-1.661 1.071,-1.108 1.439,-2.622 1.107,-4.542 -0.332,-1.919 -1.236,-3.442 -2.713,-4.569 -1.477,-1.125 -3.286,-1.688 -5.427,-1.688 -4.024,0 -6.424,1.717 -7.199,5.15 z"
             style="fill:#c81d4b;fill-opacity:1;fill-rule:evenodd;stroke:none"
             id="path20" />
        </g>
        <g
           id="g22"
           transform="translate(78.6353,71.3965)">
          <path
             d="M 0,0 C 0.986,0 1.745,-0.293 2.275,-0.88 2.806,-1.467 2.939,-2.279 2.674,-3.315 2.409,-4.351 1.85,-5.164 0.998,-5.756 0.146,-6.348 -0.788,-6.644 -1.804,-6.644 c -0.819,0 -1.495,0.19 -2.029,0.57 -0.534,0.379 -0.842,0.93 -0.925,1.65 l 1.681,0.843 c 0.037,-0.937 0.602,-1.405 1.697,-1.405 0.582,0 1.087,0.15 1.514,0.451 0.427,0.301 0.706,0.708 0.838,1.22 0.131,0.513 0.062,0.918 -0.208,1.214 -0.269,0.296 -0.69,0.444 -1.262,0.444 h -3.018 l 1.822,5.564 H 4.077 L 3.669,2.308 H -0.534 L -1.302,0 Z m 7.916,0 c 0.987,0 1.745,-0.293 2.276,-0.88 0.53,-0.587 0.663,-1.399 0.398,-2.435 C 10.325,-4.351 9.766,-5.164 8.915,-5.756 8.063,-6.348 7.129,-6.644 6.112,-6.644 c -0.818,0 -1.494,0.19 -2.029,0.57 -0.534,0.379 -0.842,0.93 -0.924,1.65 l 1.68,0.843 c 0.037,-0.937 0.602,-1.405 1.698,-1.405 0.582,0 1.086,0.15 1.513,0.451 0.428,0.301 0.707,0.708 0.838,1.22 0.131,0.513 0.062,0.918 -0.207,1.214 -0.27,0.296 -0.691,0.444 -1.263,0.444 H 4.399 l 1.824,5.564 h 5.771 L 11.585,2.308 H 7.382 L 6.614,0 Z M 25.267,3.907 22.616,-6.451 h -1.701 l 2.234,8.73 h -4.217 l -2.235,-8.73 h -1.701 l 2.65,10.358 z m 6.168,-10.358 -0.191,2.086 h -4.41 l -1.258,-2.086 h -1.85 l 6.409,10.358 h 2.042 L 33.27,-6.451 Z m -3.63,3.684 h 3.286 l -0.446,4.676 z m 13.043,6.674 c 0.977,0 1.71,-0.326 2.199,-0.977 0.49,-0.651 0.61,-1.46 0.363,-2.427 C 43.165,-0.454 42.631,-1.26 41.807,-1.916 40.983,-2.572 40.083,-2.9 39.106,-2.9 H 36.99 L 36.082,-6.451 H 34.38 l 2.651,10.358 z m -1.333,-5.209 c 0.503,0 0.961,0.17 1.374,0.511 0.412,0.34 0.685,0.772 0.819,1.294 0.134,0.523 0.082,0.954 -0.156,1.295 -0.239,0.34 -0.61,0.51 -1.113,0.51 h -2.116 l -0.924,-3.61 z m 9.307,-5.149 -0.192,2.086 h -4.409 l -1.259,-2.086 h -1.85 l 6.409,10.358 h 2.043 l 1.093,-10.358 z m -3.63,3.684 h 3.285 l -0.445,4.676 z m 5.805,-3.684 0.401,1.568 c 0.628,-0.089 1.155,0.069 1.579,0.474 0.424,0.404 0.783,1.178 1.075,2.323 l 1.534,5.993 h 6.94 L 59.875,-6.451 h -1.702 l 2.235,8.73 h -3.537 l -1.11,-4.336 c -0.232,-0.907 -0.523,-1.672 -0.875,-2.294 -0.351,-0.621 -0.744,-1.087 -1.179,-1.398 -0.435,-0.31 -0.87,-0.517 -1.306,-0.621 -0.436,-0.104 -0.904,-0.131 -1.404,-0.081 m 10.106,0 0.401,1.568 c 0.629,-0.089 1.155,0.069 1.579,0.474 0.424,0.404 0.783,1.178 1.076,2.323 l 1.533,5.993 h 6.94 L 69.981,-6.451 H 68.28 l 2.234,8.73 h -3.537 l -1.109,-4.336 c -0.232,-0.907 -0.524,-1.672 -0.876,-2.294 -0.351,-0.621 -0.744,-1.087 -1.179,-1.398 -0.434,-0.31 -0.869,-0.517 -1.305,-0.621 -0.436,-0.104 -0.904,-0.131 -1.405,-0.081 m 13.068,1.627 h 4.587 l -0.416,-1.627 h -6.289 l 2.651,10.358 h 6.215 L 80.502,2.279 H 75.989 L 75.3,-0.414 h 4.143 L 79.03,-2.027 h -4.143 z m 4.881,-1.627 0.402,1.568 c 0.628,-0.089 1.154,0.069 1.578,0.474 0.424,0.404 0.783,1.178 1.075,2.323 l 1.534,5.993 h 6.94 L 87.93,-6.451 h -1.702 l 2.235,8.73 H 84.926 L 83.817,-2.057 C 83.584,-2.964 83.293,-3.729 82.941,-4.351 82.59,-4.972 82.197,-5.438 81.762,-5.749 81.328,-6.059 80.892,-6.266 80.457,-6.37 80.02,-6.474 79.552,-6.501 79.052,-6.451 m 16.509,6.806 c 0.977,0 1.709,-0.328 2.197,-0.984 0.488,-0.656 0.61,-1.462 0.365,-2.419 -0.247,-0.967 -0.782,-1.776 -1.605,-2.427 -0.822,-0.651 -1.722,-0.976 -2.698,-0.976 h -3.818 l 2.651,10.358 h 1.701 L 93.445,0.355 Z m -1.333,-5.208 c 0.504,0 0.961,0.17 1.374,0.51 0.413,0.341 0.686,0.772 0.82,1.295 0.134,0.523 0.081,0.955 -0.157,1.295 -0.239,0.34 -0.609,0.51 -1.112,0.51 h -2.117 l -0.924,-3.61 z"
             style="fill:#c81d4b;fill-opacity:1;fill-rule:nonzero;stroke:none"
             id="path24" />
        </g>
        <g
           id="g26"
           transform="translate(76.7629,47.5586)">
          <path
             d="M 0,0 H -1.361 L -4.931,5.016 -6.215,0 H -7.25 l 2.65,10.358 h 1.036 l -1.212,-4.735 5.917,4.735 h 1.362 l -6.26,-5.031 z m 0.37,0 0.235,0.917 c 0.694,-0.098 1.292,0.126 1.792,0.674 0.5,0.547 0.937,1.551 1.311,3.011 l 1.473,5.756 h 6.718 L 9.248,0 H 8.212 l 2.401,9.382 H 5.967 L 4.736,4.572 C 4.496,3.635 4.221,2.851 3.912,2.22 3.603,1.588 3.26,1.107 2.884,0.777 2.508,0.446 2.121,0.225 1.723,0.111 1.324,-0.002 0.873,-0.039 0.37,0 m 19.933,10.358 h 1.066 L 15.85,2.264 C 15.292,1.435 14.701,0.838 14.075,0.473 13.448,0.108 12.747,-0.049 11.971,0 l 0.242,0.947 c 0.538,-0.059 1.014,0.022 1.431,0.244 0.417,0.222 0.815,0.609 1.193,1.162 l 0.332,0.488 -1.643,7.517 h 1.066 L 15.953,3.995 Z M 25.488,6.215 C 26.346,6.215 27,5.909 27.45,5.297 27.9,4.685 28.017,3.956 27.8,3.107 27.58,2.249 27.089,1.517 26.327,0.91 25.565,0.303 24.755,0 23.897,0 H 20.05 l 2.65,10.358 h 6.067 L 28.518,9.382 H 23.487 L 22.676,6.215 Z M 24.147,0.977 c 0.572,0 1.113,0.207 1.624,0.621 0.511,0.414 0.842,0.917 0.993,1.509 C 26.913,3.69 26.839,4.19 26.541,4.61 26.245,5.028 25.81,5.238 25.238,5.238 H 22.426 L 21.335,0.977 Z"
             style="fill:#c81d4b;fill-opacity:1;fill-rule:nonzero;stroke:none"
             id="path28" />
        </g>
        <g
           id="g30"
           transform="translate(116.5584,52.9623)">
          <path
             d="M 0,0 C 0.448,-0.217 0.766,-0.545 0.954,-0.984 1.143,-1.423 1.165,-1.923 1.021,-2.486 0.817,-3.285 0.362,-3.965 -0.344,-4.527 -1.051,-5.09 -1.804,-5.371 -2.603,-5.371 h -4.512 l 2.65,10.358 h 4.173 C 0.477,4.987 1.063,4.713 1.466,4.166 1.868,3.618 1.972,2.965 1.778,2.205 1.53,1.238 0.938,0.503 0,0 M -0.542,4.01 H -3.679 L -4.603,0.4 h 3.137 c 0.484,0 0.94,0.175 1.37,0.525 0.43,0.35 0.709,0.777 0.838,1.28 C 0.868,2.698 0.807,3.122 0.557,3.478 0.308,3.833 -0.059,4.01 -0.542,4.01 m -1.811,-8.404 c 0.513,0 0.997,0.185 1.452,0.554 0.454,0.371 0.75,0.822 0.886,1.354 0.134,0.523 0.069,0.972 -0.195,1.347 -0.264,0.375 -0.653,0.562 -1.166,0.562 H -4.853 L -5.83,-4.394 Z M 2.058,-5.371 4.709,4.987 H 5.745 L 4.76,1.14 H 7.424 C 8.351,1.14 9.046,0.829 9.508,0.207 9.971,-0.414 10.084,-1.188 9.846,-2.116 9.609,-3.043 9.1,-3.818 8.319,-4.439 7.539,-5.06 6.685,-5.371 5.758,-5.371 Z m 8.065,0 2.651,10.358 h 1.035 l -2.65,-10.358 z m -6.779,0.977 h 2.664 c 0.641,0 1.226,0.214 1.755,0.643 0.529,0.43 0.878,0.974 1.047,1.635 C 8.979,-1.455 8.909,-0.91 8.6,-0.48 8.29,-0.052 7.816,0.163 7.174,0.163 H 4.511 Z M 23.576,4.987 20.924,-5.371 H 19.889 L 22.29,4.01 h -5.327 l -2.401,-9.381 h -1.036 l 2.651,10.358 z m 8.404,0 h 1.066 l -5.519,-8.094 c -0.558,-0.829 -1.15,-1.426 -1.776,-1.791 -0.626,-0.365 -1.327,-0.522 -2.104,-0.473 l 0.243,0.947 c 0.537,-0.059 1.014,0.022 1.431,0.244 0.417,0.222 0.814,0.609 1.192,1.162 l 0.332,0.488 -1.642,7.517 h 1.065 l 1.361,-6.363 z m 3.948,-10.536 c -1.568,0 -2.733,0.518 -3.494,1.554 -0.761,1.036 -0.949,2.304 -0.566,3.803 0.384,1.5 1.221,2.767 2.512,3.803 1.291,1.036 2.721,1.553 4.29,1.553 0.956,0 1.776,-0.229 2.457,-0.688 0.682,-0.458 1.14,-1.077 1.375,-1.857 L 41.448,2.086 c -0.164,0.632 -0.519,1.135 -1.064,1.51 -0.545,0.375 -1.203,0.562 -1.972,0.562 -1.292,0 -2.455,-0.419 -3.489,-1.257 -1.033,-0.839 -1.706,-1.87 -2.019,-3.093 -0.313,-1.223 -0.168,-2.254 0.436,-3.093 0.605,-0.838 1.553,-1.257 2.845,-1.257 0.77,0 1.523,0.187 2.26,0.562 0.737,0.375 1.349,0.878 1.836,1.509 l 0.785,-0.518 c -0.623,-0.779 -1.396,-1.4 -2.319,-1.864 -0.923,-0.464 -1.862,-0.696 -2.819,-0.696 m 13.481,0.178 h -1.361 l -3.57,5.016 -1.284,-5.016 h -1.036 l 2.651,10.358 h 1.036 L 44.633,0.252 50.55,4.987 h 1.362 l -6.26,-5.031 z M 60.05,4.987 h 1.036 L 58.435,-5.371 h -1.036 l 1.238,4.839 H 53.015 L 51.776,-5.371 H 50.74 l 2.651,10.358 h 1.036 L 53.265,0.444 h 5.622 z m 7.411,-10.358 2.159,8.434 -7.93,-8.434 h -0.887 l 2.65,10.358 h 1.036 l -2.159,-8.434 7.93,8.434 h 0.888 L 68.497,-5.371 Z m 10.654,0 h -1.361 l -3.57,5.016 -1.284,-5.016 h -1.035 l 2.651,10.358 h 1.035 L 73.34,0.252 79.256,4.987 h 1.362 l -6.259,-5.031 z m 9.366,1.383 c -1.302,-1.041 -2.703,-1.561 -4.203,-1.561 -1.499,0 -2.634,0.52 -3.403,1.561 -0.77,1.041 -0.963,2.306 -0.582,3.796 0.381,1.489 1.222,2.755 2.524,3.795 1.302,1.041 2.703,1.561 4.203,1.561 1.5,0 2.634,-0.52 3.403,-1.561 0.77,-1.04 0.964,-2.306 0.583,-3.795 -0.382,-1.49 -1.223,-2.755 -2.525,-3.796 m -6.7,0.711 c 0.614,-0.844 1.531,-1.265 2.755,-1.265 1.223,0 2.357,0.421 3.402,1.265 1.044,0.843 1.721,1.871 2.032,3.085 0.31,1.213 0.159,2.242 -0.453,3.085 -0.613,0.844 -1.531,1.265 -2.755,1.265 -1.223,0 -2.356,-0.421 -3.401,-1.265 -1.045,-0.843 -1.722,-1.872 -2.032,-3.085 -0.311,-1.214 -0.16,-2.242 0.452,-3.085 M 97.572,0 c 0.447,-0.217 0.766,-0.545 0.954,-0.984 0.188,-0.439 0.21,-0.939 0.067,-1.502 -0.205,-0.799 -0.66,-1.479 -1.366,-2.041 -0.706,-0.563 -1.459,-0.844 -2.258,-0.844 h -4.513 l 2.651,10.358 h 4.173 c 0.769,0 1.355,-0.274 1.757,-0.821 C 99.439,3.618 99.544,2.965 99.349,2.205 99.102,1.238 98.509,0.503 97.572,0 M 97.03,4.01 H 93.892 L 92.968,0.4 h 3.137 c 0.484,0 0.941,0.175 1.371,0.525 0.429,0.35 0.709,0.777 0.837,1.28 0.127,0.493 0.065,0.917 -0.184,1.273 -0.25,0.355 -0.616,0.532 -1.099,0.532 m -1.811,-8.404 c 0.513,0 0.997,0.185 1.452,0.554 0.454,0.371 0.75,0.822 0.886,1.354 0.134,0.523 0.069,0.972 -0.196,1.347 -0.264,0.375 -0.652,0.562 -1.165,0.562 h -3.477 l -0.977,-3.817 z"
             style="fill:#c81d4b;fill-opacity:1;fill-rule:nonzero;stroke:none"
             id="path32" />
        </g>
        <g
           id="g34"
           transform="translate(74.5851,40.7265)">
          <path
             d="m 0,0 -2.651,-10.358 h -1.035 l 2.401,9.382 h -5.327 l -2.401,-9.382 h -1.036 L -7.398,0 Z M 6.067,0 C 6.994,0 7.689,-0.31 8.151,-0.932 8.614,-1.554 8.727,-2.328 8.489,-3.255 8.252,-4.182 7.743,-4.957 6.963,-5.579 6.182,-6.2 5.328,-6.511 4.401,-6.511 H 1.737 L 0.752,-10.358 H -0.283 L 2.368,0 Z M 4.65,-5.534 c 0.642,0 1.227,0.215 1.756,0.644 0.529,0.429 0.878,0.974 1.047,1.635 0.17,0.661 0.1,1.206 -0.21,1.635 -0.31,0.429 -0.785,0.644 -1.426,0.644 H 3.154 L 1.987,-5.534 Z m 5.083,-3.847 h 5.031 l -0.25,-0.977 H 8.447 L 11.098,0 h 5.993 l -0.25,-0.976 h -4.958 l -0.938,-3.67 h 4.587 l -0.25,-0.977 h -4.587 z m 12.707,4.38 c 0.516,-0.217 0.876,-0.548 1.078,-0.992 0.202,-0.444 0.226,-0.966 0.072,-1.568 -0.222,-0.868 -0.727,-1.581 -1.516,-2.138 -0.789,-0.558 -1.731,-0.836 -2.826,-0.836 -0.986,0 -1.719,0.222 -2.197,0.666 -0.479,0.443 -0.745,1.001 -0.8,1.671 l 1.016,0.503 c -0.005,-0.522 0.16,-0.964 0.497,-1.324 0.337,-0.36 0.915,-0.54 1.734,-0.54 0.809,0 1.483,0.185 2.021,0.555 0.539,0.37 0.883,0.851 1.035,1.443 0.152,0.591 0.07,1.072 -0.244,1.443 -0.316,0.369 -0.833,0.554 -1.553,0.554 h -1.184 l 0.25,0.977 h 0.814 c 0.701,0 1.303,0.178 1.809,0.533 0.505,0.355 0.829,0.814 0.973,1.376 0.141,0.552 0.057,1.003 -0.253,1.354 -0.31,0.35 -0.81,0.525 -1.5,0.525 -1.273,0 -2.25,-0.542 -2.933,-1.627 l -0.729,0.503 c 0.419,0.631 0.955,1.139 1.611,1.524 0.656,0.385 1.423,0.577 2.301,0.577 0.976,0 1.695,-0.274 2.157,-0.821 0.462,-0.548 0.588,-1.231 0.378,-2.05 -0.265,-1.036 -0.935,-1.805 -2.011,-2.308 m 8.868,-5.357 2.159,8.435 -7.929,-8.435 H 24.65 L 27.301,0 h 1.035 L 26.178,-8.434 34.107,0 h 0.888 l -2.651,-10.358 z m 11.052,0.977 h 1.11 l -0.757,-2.96 h -1.036 l 0.507,1.983 h -7.398 l -0.507,-1.983 H 33.243 L 34,-9.381 h 0.844 c 0.884,0.799 1.54,2.032 1.967,3.699 L 38.265,0 h 6.496 z m -6.288,0 h 5.253 l 2.15,8.405 h -4.424 l -1.212,-4.736 c -0.419,-1.637 -1.008,-2.86 -1.767,-3.669 m 10.136,0 h 5.031 l -0.25,-0.977 H 44.922 L 47.573,0 h 5.992 l -0.25,-0.976 h -4.956 l -0.94,-3.67 h 4.588 l -0.25,-0.977 H 47.17 Z M 62.074,0 h 1.035 l -2.65,-10.358 h -1.036 l 1.238,4.839 H 55.039 L 53.8,-10.358 H 52.764 L 55.415,0 h 1.036 l -1.163,-4.543 h 5.623 z m 9.914,0 -0.25,-0.976 h -3.181 l -2.401,-9.382 H 65.12 l 2.401,9.382 H 64.339 L 64.589,0 Z m 3.03,-10.535 c -1.568,0 -2.733,0.518 -3.494,1.554 -0.76,1.035 -0.949,2.303 -0.566,3.802 0.384,1.5 1.221,2.767 2.513,3.803 1.29,1.036 2.72,1.554 4.289,1.554 0.957,0 1.776,-0.23 2.457,-0.689 0.682,-0.458 1.141,-1.077 1.375,-1.857 L 80.538,-2.9 c -0.164,0.631 -0.518,1.134 -1.063,1.509 -0.546,0.375 -1.203,0.562 -1.973,0.562 -1.292,0 -2.454,-0.419 -3.488,-1.257 -1.033,-0.839 -1.707,-1.87 -2.02,-3.093 -0.313,-1.223 -0.167,-2.254 0.437,-3.093 0.604,-0.838 1.552,-1.258 2.845,-1.258 0.769,0 1.523,0.188 2.259,0.563 0.738,0.375 1.35,0.878 1.837,1.509 l 0.785,-0.517 c -0.624,-0.78 -1.397,-1.401 -2.32,-1.865 -0.922,-0.463 -1.862,-0.695 -2.819,-0.695 m 13.481,0.177 h -1.361 l -3.57,5.017 -1.284,-5.017 H 81.249 L 83.899,0 h 1.036 L 83.724,-4.735 89.641,0 h 1.361 l -6.259,-5.031 z m 9.366,1.383 c -1.302,-1.04 -2.703,-1.56 -4.202,-1.56 -1.5,0 -2.635,0.52 -3.404,1.56 -0.769,1.041 -0.963,2.307 -0.582,3.796 0.381,1.49 1.222,2.755 2.524,3.795 1.303,1.041 2.704,1.562 4.203,1.562 1.499,0 2.634,-0.521 3.403,-1.562 0.77,-1.04 0.964,-2.305 0.583,-3.795 -0.381,-1.489 -1.223,-2.755 -2.525,-3.796 m -6.699,0.711 c 0.613,-0.843 1.531,-1.266 2.754,-1.266 1.223,0 2.357,0.423 3.402,1.266 1.044,0.844 1.722,1.872 2.032,3.085 0.31,1.214 0.159,2.242 -0.453,3.085 -0.613,0.844 -1.531,1.265 -2.755,1.265 -1.223,0 -2.356,-0.421 -3.401,-1.265 -1.044,-0.843 -1.722,-1.871 -2.032,-3.085 -0.311,-1.213 -0.16,-2.241 0.453,-3.085 m 14.551,9.448 0.22,0.858 h 3.847 l -0.219,-0.858 z m 1.782,-11.542 2.158,8.435 -7.929,-8.435 H 100.84 L 103.491,0 h 1.036 L 102.368,-8.434 110.297,0 h 0.888 l -2.65,-10.358 z"
             style="fill:#c81d4b;fill-opacity:1;fill-rule:nonzero;stroke:none"
             id="path36" />
        </g>
        <g
           id="g38"
           transform="translate(67.0388,13.2043)">
          <path
             d="M 0,0 -0.31,2.545 H -5.223 L -6.836,0 H -7.931 L -1.3,10.358 h 1.065 L 1.095,0 Z m -4.603,3.521 h 4.172 L -1.097,9.07 Z M 9.677,0 H 8.316 L 4.746,5.016 3.462,0 H 2.427 L 5.078,10.358 H 6.113 L 4.902,5.623 10.819,10.358 H 12.18 L 5.921,5.326 Z m 8.376,0 -0.311,2.545 H 12.829 L 11.216,0 h -1.095 l 6.631,10.358 h 1.066 L 19.147,0 Z m -4.604,3.521 h 4.173 L 16.955,9.07 Z M 28.127,0.977 h 1.11 L 28.48,-1.983 H 27.444 L 27.951,0 H 20.553 L 20.046,-1.983 H 19.01 l 0.757,2.96 h 0.844 c 0.885,0.798 1.541,2.031 1.967,3.698 l 1.454,5.683 h 6.496 z m -6.288,0 h 5.253 l 2.151,8.404 H 24.818 L 23.606,4.646 C 23.187,3.008 22.598,1.785 21.839,0.977 m 10.136,0 h 5.031 L 36.756,0 h -6.067 l 2.651,10.358 h 5.992 L 39.083,9.381 h -4.958 l -0.938,-3.67 h 4.587 L 37.524,4.735 H 32.937 Z M 50.653,10.358 48.002,0 H 46.966 L 49.215,8.789 44.037,2.722 H 43.889 L 41.817,8.789 39.567,0 h -1.036 l 2.651,10.358 h 1.287 l 1.971,-5.771 4.925,5.771 z M 57.028,0 59.186,8.434 51.257,0 h -0.888 l 2.651,10.358 h 1.036 l -2.159,-8.435 7.929,8.435 h 0.888 L 58.064,0 Z M 67.09,0 69.248,8.434 61.319,0 h -0.888 l 2.651,10.358 h 1.035 l -2.158,-8.435 7.929,8.435 h 0.888 L 68.125,0 Z"
             style="fill:#c81d4b;fill-opacity:1;fill-rule:nonzero;stroke:none"
             id="path40" />
        </g>
        <g
           id="g42"
           transform="translate(83.7384,97.4937)">
          <path
             d="m 0,0 c -1.743,0 -3.121,0.628 -4.133,1.884 -1.012,1.256 -1.377,2.742 -1.096,4.459 0.308,1.718 1.141,3.141 2.5,4.268 1.358,1.128 2.959,1.692 4.805,1.692 1.743,0 3.121,-0.622 4.133,-1.865 C 7.222,9.195 7.587,7.715 7.305,5.997 6.997,4.255 6.184,2.819 4.864,1.692 3.543,0.563 1.922,0 0,0 m 0.577,3.46 c 0.769,0 1.448,0.256 2.037,0.769 0.59,0.513 0.949,1.153 1.077,1.922 C 3.819,6.92 3.684,7.561 3.287,8.074 2.89,8.586 2.294,8.842 1.5,8.842 0.73,8.842 0.051,8.586 -0.538,8.074 -1.128,7.561 -1.487,6.92 -1.615,6.151 -1.743,5.382 -1.608,4.742 -1.211,4.229 -0.814,3.716 -0.218,3.46 0.577,3.46"
             style="fill:#c81d4b;fill-opacity:1;fill-rule:evenodd;stroke:none"
             id="path44" />
        </g>
      </g>
    </g>
  </g>
</svg>
