<svg width="215" height="32" viewBox="0 0 215 32" fill="none" xmlns="http://www.w3.org/2000/svg">
<g clip-path="url(#clip0_223_728)">
<path fill-rule="evenodd" clip-rule="evenodd" d="M119.769 6.65202L115.805 25.1792H111.012L114.977 6.65202H119.769ZM139.933 18.6146L142.456 11.6582L143.909 18.6146H139.933ZM145.281 25.1792H149.714L145.845 6.65202H141.754C140.834 6.65202 140.058 7.18667 139.714 8.0108L132.522 25.1792H137.554L138.554 22.4112H144.702L145.281 25.1792ZM132.771 19.1297C132.793 14.2406 126.01 13.9706 126.057 11.786C126.072 11.1216 126.704 10.4153 128.09 10.2343C128.775 10.1449 130.669 10.0754 132.815 11.063L133.657 7.13472C132.503 6.71566 131.02 6.31323 129.173 6.31323C124.436 6.31323 121.101 8.83179 121.074 12.4373C121.043 15.1056 123.454 16.5927 125.271 17.4798C127.137 18.3877 127.763 18.9702 127.757 19.7821C127.743 21.0259 126.267 21.574 124.888 21.5955C122.478 21.6331 121.08 20.9442 119.965 20.4248L119.098 24.4849C120.216 24.9987 122.284 25.447 124.427 25.469C129.463 25.469 132.756 22.9826 132.771 19.1297ZM112.92 6.65202L105.155 25.1792H100.089L96.2672 10.3931C96.0351 9.48288 95.8339 9.14881 95.1286 8.76593C93.9765 8.14002 92.0741 7.55349 90.4004 7.18924L90.5133 6.65209H98.6691C99.708 6.65209 100.643 7.34322 100.879 8.54074L102.898 19.2622L107.886 6.65216L112.92 6.65202Z" fill="#D3D2D1"/>
<path d="M0.352141 6.78103C2.33568 6.78662 4.31921 6.78389 6.30356 6.78199C7.23769 6.76987 8.17263 7.2517 8.68263 8.03883C9.15698 8.71258 9.3376 9.52747 9.57116 10.3034C10.2894 12.7224 10.9964 15.1449 11.7165 17.564C11.7286 17.7824 12.0525 17.8663 12.1157 17.6338C12.8507 15.1914 13.5596 12.7418 14.289 10.2979C14.5393 9.43641 14.7552 8.52175 15.3384 7.81384C15.7134 7.35515 16.2381 7.02862 16.8083 6.87604C17.2941 6.74115 17.8028 6.79233 18.3007 6.78389C20.0424 6.79043 21.7849 6.76906 23.5266 6.79505C23.5144 12.8712 23.5331 18.9474 23.5163 25.0225C21.6323 25.0104 19.7474 25.0393 17.8634 25.0077C17.8634 21.4435 17.8718 17.8793 17.8597 14.3151C17.8476 13.998 17.3229 14.025 17.2877 14.3236C16.1656 17.8841 15.0361 21.4427 13.9309 25.0078C12.6004 25.0386 11.2682 25.0144 9.93675 25.0199C8.81657 21.4594 7.70495 17.8962 6.57361 14.3394C6.5261 14.0455 6.17902 14.0353 5.99214 14.2072C5.99582 17.8087 5.98751 21.41 5.99582 25.0115C4.11464 25.0348 2.23346 25.0125 0.352277 25.0227C0.351324 18.9418 0.351188 12.8619 0.352141 6.78103ZM26.0989 6.7922C27.979 6.76334 29.8611 6.80703 31.7415 6.76892C31.7713 10.376 31.7452 13.9839 31.7546 17.5908C31.9156 17.7351 32.2113 17.7797 32.3099 17.5407C33.5622 14.9162 34.809 12.2889 36.0601 9.66331C36.4565 8.84828 36.7784 7.96451 37.425 7.30574C37.7143 7.03229 38.0744 6.76715 38.493 6.7858C40.4105 6.78675 42.328 6.77368 44.2463 6.79233C44.2492 12.8657 44.2492 18.9391 44.2463 25.0123C42.3652 25.0272 40.483 25.0263 38.6009 25.0133C38.5999 21.4156 38.6084 17.817 38.5972 14.2192C38.5926 13.9104 38.0698 13.9355 38.0158 14.2127C36.836 16.8158 35.6609 19.4208 34.4822 22.0239C34.1193 22.8137 33.7751 23.6278 33.2337 24.3164C32.9323 24.6997 32.4921 25.0439 31.9797 25.0206C30.0204 25.0197 28.06 25.0235 26.1008 25.0187C26.1008 18.9434 26.1037 12.8673 26.0989 6.7922ZM46.9973 15.116C52.907 15.076 58.8185 15.116 64.7281 15.0964C64.529 15.9105 64.0025 16.6112 63.4451 17.2223C62.3456 18.4159 60.7647 19.1445 59.1404 19.1872C56.982 19.1984 54.8225 19.1853 52.6633 19.1937C52.6502 21.1371 52.6633 23.0797 52.6577 25.0234C50.7746 25.0149 48.8906 25.0289 47.0067 25.0149C46.9974 21.7159 47.0158 18.416 46.9973 15.116Z" fill="#D3D2D1"/>
<path d="M46.2812 6.7917C50.6968 6.78612 55.1122 6.78245 59.5276 6.78707C60.6859 6.86983 61.8042 7.33968 62.7215 8.04487C64.0539 9.0823 64.9527 10.6741 65.1005 12.3609C65.1351 12.9684 65.1227 13.5805 65.0326 14.1824C62.3272 14.1981 59.6217 14.1833 56.9161 14.187C55.9875 14.1785 55.0536 14.2251 54.1315 14.0884C52.0541 13.8251 50.0055 12.9598 48.5337 11.4425C47.2925 10.1985 46.528 8.5222 46.2812 6.7917Z" fill="#D3D2D1"/>
<path d="M183.36 31.6858V29.7232C183.372 29.5582 183.348 29.3925 183.29 29.2374C183.232 29.0823 183.141 28.9412 183.024 28.8236C182.907 28.706 182.765 28.6145 182.61 28.5553C182.454 28.4961 182.287 28.4706 182.121 28.4803C181.903 28.4662 181.685 28.5104 181.491 28.6082C181.296 28.706 181.131 28.8538 181.013 29.0364C180.906 28.8593 180.753 28.7142 180.57 28.6163C180.386 28.5185 180.18 28.4715 179.972 28.4803C179.791 28.4713 179.61 28.5094 179.448 28.5909C179.286 28.6723 179.149 28.7943 179.049 28.9448V28.5588H178.363V31.6858H179.055V29.9522C179.041 29.8452 179.05 29.7363 179.082 29.6332C179.115 29.5301 179.17 29.4355 179.243 29.3561C179.317 29.2766 179.408 29.2144 179.509 29.1738C179.609 29.1333 179.718 29.1154 179.827 29.1214C180.282 29.1214 180.512 29.4158 180.512 29.9456V31.6858H181.205V29.9522C181.191 29.8454 181.201 29.7369 181.234 29.6343C181.266 29.5318 181.322 29.4376 181.395 29.3584C181.469 29.2792 181.559 29.217 181.659 29.176C181.759 29.1351 181.868 29.1165 181.976 29.1214C182.444 29.1214 182.668 29.4158 182.668 29.9456V31.6858H183.36ZM193.605 28.5588H192.484V27.6103H191.792V28.5588H191.152V29.1803H191.792V30.6064C191.792 31.3325 192.075 31.7643 192.886 31.7643C193.189 31.7652 193.486 31.6813 193.743 31.5222L193.545 30.94C193.362 31.0488 193.153 31.1096 192.939 31.1166C192.596 31.1166 192.484 30.9072 192.484 30.5933V29.1803H193.605V28.5588ZM199.452 28.4803C199.285 28.4754 199.12 28.5154 198.973 28.596C198.827 28.6766 198.706 28.7948 198.622 28.9382V28.5588H197.943V31.6858H198.628V29.9326C198.628 29.4158 198.852 29.1279 199.301 29.1279C199.447 29.126 199.593 29.1526 199.729 29.2065L199.94 28.5654C199.783 28.5098 199.618 28.481 199.452 28.4803ZM190.612 28.8074C190.224 28.5784 189.778 28.4649 189.326 28.4803C188.529 28.4803 188.015 28.8597 188.015 29.4812C188.015 29.9915 188.397 30.3055 189.102 30.4036L189.425 30.4494C189.801 30.5016 189.979 30.5998 189.979 30.7764C189.979 31.0185 189.728 31.1559 189.26 31.1559C188.884 31.1666 188.515 31.0514 188.212 30.8288L187.889 31.3587C188.289 31.6354 188.767 31.7776 189.254 31.7643C190.164 31.7643 190.691 31.339 190.691 30.7437C190.691 30.1942 190.276 29.9064 189.59 29.8082L189.267 29.7625C188.97 29.7232 188.733 29.6644 188.733 29.4551C188.733 29.2261 188.957 29.0887 189.333 29.0887C189.678 29.0939 190.016 29.1862 190.315 29.3569L190.612 28.8074ZM208.978 28.4803C208.811 28.4754 208.646 28.5154 208.499 28.596C208.353 28.6766 208.232 28.7948 208.147 28.9382V28.5588H207.468V31.6858H208.154V29.9326C208.154 29.4158 208.378 29.1279 208.826 29.1279C208.973 29.1259 209.119 29.1526 209.255 29.2065L209.466 28.5654C209.309 28.5098 209.144 28.481 208.978 28.4803ZM200.144 30.1222C200.135 30.3425 200.173 30.5623 200.254 30.7673C200.336 30.9724 200.46 31.1582 200.618 31.3129C200.777 31.4676 200.966 31.5876 201.174 31.6654C201.382 31.7431 201.604 31.7768 201.825 31.7643C202.237 31.7848 202.642 31.6518 202.959 31.3914L202.63 30.8419C202.393 31.0211 202.104 31.1198 201.806 31.1231C201.549 31.1077 201.307 30.9955 201.131 30.8095C200.955 30.6235 200.856 30.3777 200.856 30.1223C200.856 29.8669 200.955 29.6211 201.131 29.4351C201.307 29.2491 201.549 29.1369 201.806 29.1214C202.104 29.1248 202.393 29.2234 202.63 29.4027L202.959 28.8532C202.642 28.5928 202.237 28.4598 201.825 28.4803C201.604 28.4678 201.382 28.5015 201.174 28.5792C200.966 28.657 200.777 28.777 200.618 28.9317C200.46 29.0863 200.336 29.2721 200.254 29.4772C200.173 29.6822 200.135 29.9019 200.144 30.1222ZM206.565 30.1222V28.5588H205.88V28.9382C205.763 28.7886 205.611 28.6689 205.438 28.5893C205.265 28.5096 205.075 28.4722 204.884 28.4803C204.459 28.501 204.059 28.683 203.766 28.9887C203.472 29.2944 203.309 29.7002 203.309 30.1223C203.309 30.5444 203.472 30.9503 203.766 31.2559C204.059 31.5616 204.459 31.7436 204.884 31.7643C205.075 31.7724 205.265 31.735 205.438 31.6553C205.611 31.5756 205.763 31.456 205.88 31.3063V31.6858H206.565V30.1222ZM204.014 30.1222C204.025 29.9377 204.09 29.7603 204.201 29.6119C204.312 29.4635 204.464 29.3506 204.639 29.2871C204.814 29.2236 205.004 29.2123 205.185 29.2546C205.366 29.2968 205.531 29.3909 205.659 29.525C205.787 29.6591 205.873 29.8276 205.906 30.0095C205.939 30.1914 205.917 30.3789 205.844 30.5488C205.771 30.7187 205.649 30.8637 205.494 30.9657C205.338 31.0678 205.156 31.1225 204.97 31.1231C204.839 31.1249 204.71 31.0998 204.59 31.0494C204.469 30.9991 204.361 30.9245 204.271 30.8305C204.181 30.7364 204.112 30.625 204.068 30.5031C204.024 30.3812 204.005 30.2515 204.014 30.1222ZM195.741 28.4803C195.313 28.5027 194.911 28.6884 194.618 28.9987C194.326 29.3089 194.166 29.7195 194.172 30.1443C194.178 30.5692 194.349 30.9752 194.65 31.2772C194.952 31.5792 195.359 31.7538 195.787 31.7643C196.257 31.7807 196.717 31.6246 197.079 31.3259L196.743 30.8223C196.482 31.0293 196.16 31.1444 195.826 31.1493C195.6 31.1682 195.375 31.0989 195.199 30.9561C195.023 30.8132 194.91 30.608 194.884 30.3839H197.224C197.231 30.2989 197.237 30.2139 197.237 30.1222C197.231 29.1476 196.624 28.4803 195.741 28.4803ZM195.728 29.0887C195.935 29.0847 196.135 29.1623 196.284 29.3046C196.434 29.4468 196.52 29.6421 196.525 29.8475H194.89C194.902 29.6376 194.997 29.4407 195.153 29.2989C195.31 29.1571 195.516 29.0816 195.728 29.0887ZM212.927 30.1222V27.3029H212.241V28.9382C212.124 28.7886 211.973 28.6689 211.8 28.5893C211.626 28.5096 211.437 28.4722 211.246 28.4803C210.821 28.501 210.421 28.683 210.127 28.9887C209.834 29.2943 209.67 29.7002 209.67 30.1223C209.67 30.5444 209.834 30.9503 210.127 31.256C210.421 31.5616 210.821 31.7436 211.246 31.7643C211.437 31.7724 211.626 31.735 211.8 31.6553C211.973 31.5756 212.124 31.456 212.241 31.3063V31.6858H212.927V30.1222ZM214.07 31.2326C214.112 31.2323 214.155 31.2406 214.194 31.257C214.232 31.2726 214.266 31.2952 214.295 31.3237C214.324 31.352 214.347 31.3856 214.363 31.4227C214.38 31.4608 214.388 31.5018 214.388 31.5432C214.388 31.5847 214.38 31.6257 214.363 31.6638C214.347 31.7007 214.324 31.7342 214.295 31.7624C214.266 31.7908 214.232 31.8135 214.194 31.8294C214.155 31.8461 214.112 31.8545 214.07 31.8542C214.007 31.8548 213.946 31.8371 213.893 31.8033C213.84 31.7694 213.799 31.7209 213.774 31.6638C213.757 31.6257 213.749 31.5847 213.749 31.5432C213.749 31.5018 213.757 31.4608 213.774 31.4227C213.79 31.3857 213.813 31.352 213.842 31.3237C213.871 31.295 213.906 31.2724 213.944 31.257C213.984 31.2406 214.027 31.2323 214.07 31.2326ZM214.07 31.7857C214.102 31.7859 214.134 31.7794 214.164 31.7666C214.193 31.7543 214.219 31.7367 214.241 31.7148C214.287 31.6692 214.312 31.6076 214.312 31.5434C214.312 31.4792 214.287 31.4176 214.241 31.372C214.219 31.3501 214.193 31.3327 214.164 31.3206C214.134 31.308 214.102 31.3016 214.07 31.3019C214.037 31.3017 214.004 31.308 213.973 31.3206C213.944 31.3325 213.918 31.35 213.896 31.372C213.85 31.4176 213.824 31.4792 213.824 31.5434C213.824 31.6076 213.85 31.6692 213.896 31.7148C213.918 31.7369 213.944 31.7545 213.973 31.7666C214.004 31.7794 214.037 31.7859 214.07 31.7857ZM214.088 31.3979C214.119 31.3959 214.15 31.4047 214.175 31.4227C214.185 31.4308 214.193 31.4411 214.198 31.4528C214.203 31.4645 214.205 31.4773 214.205 31.4901C214.205 31.5011 214.203 31.512 214.199 31.5221C214.195 31.5323 214.189 31.5415 214.181 31.5491C214.162 31.5659 214.138 31.576 214.112 31.5777L214.207 31.6866H214.133L214.045 31.5784H214.016V31.6866H213.954V31.3979H214.088ZM214.016 31.452V31.529H214.088C214.101 31.5296 214.115 31.5263 214.127 31.5194C214.131 31.5162 214.135 31.5118 214.138 31.5067C214.14 31.5015 214.142 31.4958 214.141 31.4901C214.142 31.4845 214.14 31.4789 214.138 31.4738C214.135 31.4688 214.131 31.4646 214.127 31.4615C214.115 31.4546 214.101 31.4513 214.088 31.452H214.016ZM210.376 30.1222C210.386 29.9377 210.451 29.7603 210.562 29.612C210.673 29.4636 210.826 29.3507 211.001 29.2872C211.175 29.2237 211.365 29.2124 211.547 29.2547C211.728 29.297 211.893 29.391 212.021 29.5251C212.149 29.6593 212.235 29.8277 212.267 30.0096C212.3 30.1915 212.279 30.379 212.205 30.5489C212.132 30.7188 212.01 30.8637 211.855 30.9658C211.7 31.0678 211.518 31.1225 211.332 31.1231C211.201 31.1249 211.072 31.0998 210.951 31.0494C210.831 30.999 210.723 30.9245 210.633 30.8304C210.543 30.7364 210.474 30.6249 210.429 30.503C210.385 30.3811 210.367 30.2515 210.376 30.1222ZM187.223 30.1222V28.5588H186.538V28.9382C186.421 28.7886 186.269 28.6689 186.096 28.5893C185.923 28.5096 185.733 28.4722 185.542 28.4803C185.118 28.501 184.717 28.683 184.424 28.9887C184.13 29.2944 183.967 29.7002 183.967 30.1223C183.967 30.5444 184.13 30.9503 184.424 31.2559C184.717 31.5616 185.118 31.7436 185.542 31.7643C185.733 31.7724 185.923 31.735 186.096 31.6553C186.269 31.5756 186.421 31.456 186.538 31.3063V31.6858H187.223V30.1222ZM184.672 30.1222C184.683 29.9377 184.748 29.7603 184.859 29.612C184.97 29.4636 185.122 29.3507 185.297 29.2872C185.472 29.2237 185.662 29.2124 185.843 29.2547C186.024 29.297 186.189 29.391 186.317 29.5251C186.445 29.6593 186.531 29.8277 186.564 30.0096C186.597 30.1915 186.575 30.379 186.502 30.5489C186.429 30.7188 186.307 30.8637 186.152 30.9658C185.996 31.0678 185.814 31.1225 185.628 31.1231C185.498 31.1249 185.368 31.0998 185.248 31.0494C185.127 30.999 185.019 30.9245 184.929 30.8304C184.839 30.7364 184.77 30.6249 184.726 30.503C184.682 30.3812 184.663 30.2515 184.672 30.1222Z" fill="#D3D2D1"/>
<path d="M186.656 23.693C193.097 23.693 198.318 18.4716 198.318 12.0307C198.318 5.5898 193.097 0.368408 186.656 0.368408C180.215 0.368408 174.994 5.5898 174.994 12.0307C174.994 18.4716 180.215 23.693 186.656 23.693Z" fill="#D3D3D3" fill-opacity="0.5"/>
<path d="M201.735 23.693C208.176 23.693 213.397 18.4716 213.397 12.0307C213.397 5.5898 208.176 0.368408 201.735 0.368408C195.294 0.368408 190.073 5.5898 190.073 12.0307C190.073 18.4716 195.294 23.693 201.735 23.693Z" fill="#D3D3D3" fill-opacity="0.5"/>
</g>
<defs>
<clipPath id="clip0_223_728">
<rect width="215" height="32" fill="white"/>
</clipPath>
</defs>
</svg>
