<svg width="40" height="40" viewBox="0 0 40 40" fill="none" xmlns="http://www.w3.org/2000/svg">
<path d="M28.5442 27.955L27.9548 28.5442C27.6295 28.8696 27.1018 28.8696 26.7763 28.5442L20 21.7677L13.2235 28.5441C12.8981 28.8696 12.3704 28.8696 12.045 28.5441L11.4557 27.9548C11.1303 27.6295 11.1303 27.1018 11.4557 26.7763L18.2322 20L11.4557 13.2235C11.1303 12.8981 11.1303 12.3704 11.4557 12.045L12.045 11.4558C12.3704 11.1303 12.8981 11.1303 13.2235 11.4558L20 18.2322L26.7763 11.4557C27.1018 11.1303 27.6295 11.1303 27.9548 11.4557L28.5442 12.045C28.8696 12.3704 28.8696 12.8981 28.5442 13.2235L21.7677 20L28.5442 26.7763C28.8696 27.1018 28.8696 27.6295 28.5442 27.955Z" fill="#F4F3F2"/>
</svg>
