<svg width="128" height="104" viewBox="0 0 128 104" fill="none" xmlns="http://www.w3.org/2000/svg">
<path fill-rule="evenodd" clip-rule="evenodd" d="M12.8 0.799805H115.2C122.269 0.799805 128 6.53036 128 13.5998V90.3998C128 97.4692 122.269 103.2 115.2 103.2H12.8C5.73056 103.2 0 97.4692 0 90.3998V13.5998C0 6.53036 5.73056 0.799805 12.8 0.799805ZM58.688 72.6078L83.584 55.9678C84.9254 55.0936 85.7344 53.6011 85.7344 51.9998C85.7344 50.3985 84.9254 48.906 83.584 48.0318L58.688 31.3918C57.2179 30.3985 55.3203 30.2968 53.7523 31.1275C52.185 31.9582 51.2032 33.5857 51.2 35.3598V68.6398C51.2032 70.4139 52.185 72.0414 53.7523 72.8721C55.3203 73.7028 57.2179 73.6011 58.688 72.6078Z" fill="black" fill-opacity="0.15"/>
<path fill-rule="evenodd" clip-rule="evenodd" d="M37.333 51.9999C37.333 37.2723 49.2721 25.3333 63.9997 25.3333C71.0721 25.3333 77.8549 28.1428 82.8559 33.1437C87.8568 38.1447 90.6663 44.9275 90.6663 51.9999C90.6663 66.7275 78.7273 78.6666 63.9997 78.6666C49.2721 78.6666 37.333 66.7275 37.333 51.9999ZM59.1198 63.4133L74.6664 53.7066C75.2482 53.334 75.6001 52.6908 75.6001 51.9999C75.6001 51.3091 75.2482 50.6658 74.6664 50.2933L59.0664 40.5866C58.452 40.1992 57.6758 40.1754 57.0388 40.5243C56.4018 40.8733 56.004 41.5402 55.9998 42.2666V61.7333C55.9912 62.4773 56.3963 63.1646 57.0514 63.5173C57.7065 63.8701 58.5033 63.83 59.1198 63.4133Z" fill="white"/>
</svg>
