<svg width="40" height="40" viewBox="0 0 40 40" fill="none" xmlns="http://www.w3.org/2000/svg">
<path d="M10 19.6C10 15.0733 10 12.8133 11.4 11.4C12.82 10 15.08 10 19.6 10H20.4C24.9267 10 27.1867 10 28.6 11.4C30 12.82 30 15.08 30 19.6V20.4C30 24.9267 30 27.1867 28.6 28.6C27.18 30 24.92 30 20.4 30H19.6C15.0733 30 12.8133 30 11.4 28.6C10 27.18 10 24.92 10 20.4V19.6Z" fill="#B8364A" class="colored"/>
<path d="M20.64 24.4067C16.08 24.4067 13.48 21.2867 13.3733 16.0867H15.6666C15.74 19.9001 17.42 21.5134 18.7533 21.8467V16.0867H20.9066V19.3734C22.22 19.2334 23.6066 17.7334 24.0733 16.0801H26.22C26.0449 16.9359 25.6953 17.7465 25.1929 18.4611C24.6904 19.1757 24.0461 19.7791 23.3 20.2334C24.1326 20.6478 24.8679 21.234 25.4574 21.9534C26.0469 22.6728 26.4772 23.5089 26.72 24.4067H24.3533C23.8466 22.8267 22.58 21.6001 20.9066 21.4334V24.4067H20.6466H20.64Z" fill="white"/>
</svg>
